# xmcd
#
# Track frame offsets:
# 150
# 12536
# 26280
# 41313
# 60008
# 71627
# 90256
# 108674
# 125481
# 142050
# 161992
#
# Disc length: 2464 seconds
#
#
# Revision: 0
# Processed by: cddbd v1.5.2PL0 Copyright (c) Steve Scherf et al.
# Submitted via: FreeRIP 2.945 
#
DISCID=8c099e0b
DTITLE=The Federales - Never Coming Home
DYEAR=1900
DGENRE=Blues
TTITLE0=Dead or Gone
TTITLE1=Without You
TTITLE2=Never Coming Home
TTITLE3=It's Not the Same
TTITLE4=Murdered Soul
TTITLE5=Must Be the Fool
TTITLE6=Water to Wine
TTITLE7=It Doesn't Matter
TTITLE8=Tryin' to Hard
TTITLE9=Dawn Turns to Day
TTITLE10=If I Knew Then
EXTD=
EXTT0=
EXTT1=
EXTT2=
EXTT3=
EXTT4=
EXTT5=
EXTT6=
EXTT7=
EXTT8=
EXTT9=
EXTT10=
PLAYORDER=
